<svg width="661" height="324" viewBox="0 0 661 324" fill="none" xmlns="http://www.w3.org/2000/svg">
<path d="M396.219 103.73C405.785 98.2075 418.017 101.485 423.54 111.051C432.48 126.535 437.186 144.099 437.187 161.979C437.186 179.858 432.48 197.423 423.54 212.907C418.017 222.473 405.785 225.75 396.219 220.227C386.654 214.704 383.377 202.473 388.9 192.907C394.328 183.504 397.187 172.837 397.187 161.979C397.187 151.121 394.328 140.453 388.899 131.05C383.377 121.484 386.654 109.253 396.219 103.73ZM455.027 69.7773C464.593 64.2548 476.825 67.5323 482.348 77.0977C497.248 102.904 505.091 132.179 505.092 161.978C505.092 191.777 497.247 221.052 482.347 246.859C476.825 256.425 464.593 259.703 455.027 254.18C445.462 248.657 442.184 236.425 447.707 226.859C459.096 207.133 465.092 184.756 465.092 161.978C465.092 139.201 459.095 116.824 447.707 97.0983C442.184 87.5326 445.462 75.3001 455.027 69.7773ZM513.834 35.8245C523.399 30.302 535.631 33.5804 541.154 43.1455C562.013 79.275 572.996 120.259 572.996 161.978C572.996 203.697 562.013 244.681 541.154 280.811C535.631 290.377 523.4 293.655 513.834 288.132C504.269 282.609 500.99 270.377 506.513 260.811C523.861 230.763 532.995 196.676 532.995 161.979C532.995 127.282 523.862 93.1942 506.513 63.1455C500.991 53.5798 504.268 41.3472 513.834 35.8245Z" fill="#353535"/>
<path d="M264.738 220.227C255.172 225.749 242.939 222.472 237.417 212.907C228.477 197.423 223.77 179.858 223.77 161.978C223.77 144.099 228.477 126.534 237.417 111.05C242.939 101.484 255.172 98.207 264.738 103.73C274.303 109.253 277.58 121.484 272.057 131.05C266.628 140.453 263.77 151.12 263.77 161.978C263.77 172.836 266.629 183.504 272.058 192.907C277.58 202.473 274.303 214.704 264.738 220.227ZM205.931 254.18C196.365 259.702 184.133 256.425 178.61 246.859C163.711 221.053 155.867 191.778 155.867 161.979C155.867 132.18 163.711 102.905 178.611 77.0978C184.134 67.5321 196.365 64.2541 205.931 69.7768C215.496 75.2998 218.774 87.5322 213.251 97.0978C201.863 116.824 195.866 139.201 195.866 161.979C195.867 184.756 201.863 207.133 213.251 226.859C218.774 236.424 215.496 248.657 205.931 254.18ZM147.124 288.132C137.558 293.655 125.326 290.376 119.803 280.811C98.9441 244.681 87.9616 203.697 87.9616 161.978C87.9616 120.259 98.9441 79.2753 119.803 43.1457C125.326 33.58 137.558 30.3019 147.124 35.8246C156.689 41.3475 159.967 53.5793 154.445 63.1449C137.096 93.1937 127.962 127.28 127.962 161.978C127.962 196.675 137.095 230.762 154.444 260.811C159.967 270.377 156.689 282.609 147.124 288.132Z" fill="#353535"/>
<circle cx="328" cy="162" r="32" fill="#353535"/>
</svg>
